<svg width="30" height="28" viewBox="0 0 30 28" fill="none" xmlns="http://www.w3.org/2000/svg">
<path d="M12.3663 1.82924C13.5033 -0.255579 16.4969 -0.255583 17.6339 1.82924L19.9257 6.03162C20.3572 6.82281 21.1215 7.37811 22.0073 7.54399L26.7122 8.42505C29.0464 8.86216 29.9714 11.7092 28.34 13.4348L25.0515 16.9131C24.4324 17.5679 24.1405 18.4664 24.2564 19.3601L24.8724 24.1071C25.178 26.462 22.7561 28.2216 20.6108 27.2033L16.2866 25.1506C15.4725 24.7641 14.5277 24.7641 13.7136 25.1506L9.38937 27.2033C7.24409 28.2216 4.82224 26.462 5.12782 24.1071L5.74377 19.3601C5.85974 18.4664 5.5678 17.5679 4.94868 16.9131L1.6602 13.4348C0.0287654 11.7092 0.953825 8.86216 3.28796 8.42506L7.99289 7.54399C8.87868 7.37811 9.64299 6.82281 10.0745 6.03163L12.3663 1.82924Z" fill="#FFB648"/>
</svg>
