<svg width="171" height="38" viewBox="0 0 171 38" fill="none" xmlns="http://www.w3.org/2000/svg">
<g clip-path="url(#clip0_482_1427)">
<path d="M25.2793 17.4797C24.801 17.9627 24.4347 18.5456 24.2065 19.1869C23.9783 19.8282 23.8938 20.5121 23.9591 21.19L23.9364 21.1672C24.0035 21.965 23.8963 22.7679 23.6223 23.5199C23.3482 24.2719 22.914 24.9548 22.3499 25.521C21.7857 26.0872 21.1052 26.523 20.3559 26.798C19.6066 27.073 18.8066 27.1805 18.0116 27.1132L18.0343 27.136C17.0833 27.0472 16.1282 27.2548 15.2991 27.7307C14.4701 28.2066 13.8075 28.9276 13.4016 29.7952C12.9958 30.6629 12.8665 31.6351 13.0314 32.5792C13.1962 33.5233 13.6472 34.3934 14.3229 35.0709C14.9985 35.7483 15.8659 36.2002 16.8068 36.3648C17.7477 36.5294 18.7163 36.3987 19.5805 35.9907C20.4447 35.5826 21.1625 34.9169 21.6359 34.0845C22.1094 33.252 22.3154 32.2933 22.2261 31.339L22.2501 31.3618C22.183 30.5639 22.2901 29.761 22.5642 29.009C22.8382 28.257 23.2724 27.5741 23.8366 27.008C24.4007 26.4418 25.0812 26.006 25.8305 25.731C26.5798 25.456 27.3798 25.3484 28.1748 25.4158L28.1509 25.393C28.9277 25.4631 29.7096 25.3353 30.4241 25.0213C31.1386 24.7074 31.7625 24.2176 32.2382 23.5973C32.7138 22.9769 33.0257 22.2461 33.145 21.4725C33.2642 20.699 33.187 19.9077 32.9204 19.1721C32.6538 18.4365 32.2065 17.7803 31.62 17.2644C31.0334 16.7485 30.3266 16.3895 29.5649 16.2207C28.8033 16.0519 28.0116 16.0788 27.2631 16.2989C26.5146 16.519 25.8336 16.9251 25.2831 17.4797H25.2793Z" fill="#1E1B1B"/>
<path d="M15.9678 24.1486L15.9439 24.1258C16.6196 24.1941 17.3019 24.1109 17.9417 23.8822C18.5814 23.6534 19.1624 23.2848 19.6428 22.8031C20.1232 22.3213 20.4909 21.7384 20.7193 21.0966C20.9478 20.4548 21.0312 19.77 20.9636 19.0918L20.9876 19.1146C20.9205 18.3168 21.0277 17.5138 21.3017 16.7619C21.5757 16.0099 22.01 15.327 22.5741 14.7608C23.1383 14.1946 23.8188 13.7588 24.568 13.4838C25.3173 13.2088 26.1174 13.1013 26.9124 13.1686L26.8884 13.1458C27.8395 13.2354 28.7949 13.0285 29.6245 12.5531C30.454 12.0777 31.1172 11.3572 31.5236 10.4896C31.9301 9.62206 32.06 8.64981 31.8956 7.70545C31.7312 6.7611 31.2806 5.89062 30.6052 5.21275C29.9297 4.53487 29.0623 4.08261 28.1214 3.91765C27.1804 3.75268 26.2116 3.88304 25.3471 4.29095C24.4827 4.69886 23.7647 5.36446 23.291 6.19696C22.8174 7.02946 22.6111 7.98834 22.7004 8.94279L22.6777 8.91872C22.7451 9.71663 22.638 10.5197 22.3641 11.2717C22.0901 12.0238 21.6559 12.7068 21.0917 13.2731C20.5275 13.8393 19.8469 14.2751 19.0975 14.55C18.3481 14.8249 17.548 14.9323 16.7529 14.8648L16.7757 14.8888C16.1 14.8205 15.4176 14.9037 14.7779 15.1325C14.1381 15.3613 13.5571 15.7298 13.0767 16.2116C12.5963 16.6933 12.2286 17.2762 12.0002 17.918C11.7717 18.5599 11.6883 19.2446 11.7559 19.9228L11.7332 19.9C11.8 20.6978 11.6927 21.5006 11.4186 22.2525C11.1445 23.0044 10.7103 23.6872 10.1462 24.2534C9.58205 24.8195 8.90168 25.2553 8.15248 25.5304C7.40329 25.8054 6.60332 25.9132 5.80837 25.846L5.83109 25.8688C4.88004 25.7792 3.92459 25.9862 3.09507 26.4615C2.26554 26.9369 1.60232 27.6575 1.19587 28.525C0.789414 29.3926 0.659517 30.3648 0.823893 31.3092C0.988269 32.2535 1.43892 33.124 2.11437 33.8019C2.78982 34.4798 3.65719 34.932 4.59817 35.097C5.53915 35.262 6.50793 35.1316 7.37237 34.7237C8.23682 34.3158 8.95484 33.6502 9.42849 32.8177C9.90215 31.9852 10.1084 31.0263 10.0191 30.0719L10.0431 30.0947C9.97595 29.2968 10.0831 28.4939 10.3572 27.7419C10.6312 26.9899 11.0654 26.307 11.6296 25.7408C12.1937 25.1746 12.8742 24.7389 13.6235 24.4639C14.3728 24.1889 15.1728 24.0813 15.9678 24.1486Z" fill="#1E1B1B"/>
<path d="M7.50886 21.6063C7.98726 21.1234 8.35354 20.5405 8.58154 19.8991C8.80954 19.2578 8.89365 18.5738 8.82786 17.896L8.85184 17.9188C8.78468 17.1208 8.89193 16.3176 9.16609 15.5654C9.44025 14.8132 9.87472 14.1302 10.4392 13.564C11.0036 12.9977 11.6844 12.562 12.434 12.2872C13.1836 12.0124 13.9839 11.9051 14.7792 11.9728L14.7552 11.95C15.7059 12.0394 16.6609 11.8323 17.4901 11.357C18.3192 10.8817 18.9821 10.1612 19.3883 9.29396C19.7945 8.42669 19.9243 7.45479 19.7599 6.51079C19.5955 5.56679 19.145 4.69664 18.4698 4.01902C17.7946 3.34139 16.9276 2.88927 15.987 2.72431C15.0463 2.55936 14.0779 2.68959 13.2137 3.09725C12.3496 3.50492 11.6317 4.17016 11.1581 5.00228C10.6845 5.8344 10.4781 6.79287 10.5672 7.747L10.5445 7.7242C10.6116 8.52205 10.5044 9.32499 10.2304 10.077C9.95634 10.829 9.5221 11.5119 8.95795 12.078C8.3938 12.6442 7.71333 13.08 6.96404 13.355C6.21474 13.63 5.41467 13.7376 4.61967 13.6702L4.64239 13.693C3.8656 13.6231 3.08378 13.7511 2.3694 14.0652C1.65502 14.3792 1.03118 14.8691 0.555692 15.4896C0.0802061 16.11 -0.231542 16.8408 -0.350663 17.6144C-0.469784 18.3879 -0.392425 19.1791 -0.125753 19.9146C0.140919 20.6501 0.588275 21.3062 1.17486 21.8221C1.76144 22.3379 2.46828 22.6968 3.22986 22.8655C3.99145 23.0342 4.78314 23.0072 5.53158 22.7871C6.28002 22.567 6.96099 22.1608 7.51138 21.6063H7.50886Z" fill="#1E1B1B"/>
<path d="M46.6079 8.97217H50.3566V27.2802H46.6079V8.97217Z" fill="#1E1B1B"/>
<path d="M52.4797 21.011C52.4744 19.6953 52.8584 18.4077 53.5829 17.3112C54.3074 16.2147 55.3399 15.3586 56.5496 14.8515C57.7593 14.3444 59.0917 14.2089 60.3782 14.4624C61.6646 14.7158 62.8472 15.3467 63.776 16.2752C64.7049 17.2037 65.3383 18.3879 65.596 19.6779C65.8537 20.968 65.7241 22.3057 65.2236 23.5218C64.7231 24.7378 63.8743 25.7774 62.7846 26.5089C61.6949 27.2405 60.4134 27.6309 59.1025 27.631C58.2322 27.6409 57.3687 27.4767 56.5625 27.1479C55.7562 26.819 55.0234 26.3322 54.4067 25.7159C53.7901 25.0995 53.3021 24.366 52.9712 23.5582C52.6403 22.7503 52.4732 21.8844 52.4797 21.011ZM61.9765 21.011C61.9609 20.4439 61.779 19.894 61.4536 19.4301C61.1283 18.9661 60.6739 18.6087 60.1473 18.4025C59.6206 18.1963 59.0451 18.1505 58.4926 18.2708C57.9402 18.3911 57.4353 18.6722 57.0412 19.0789C56.647 19.4855 56.3811 19.9998 56.2765 20.5574C56.172 21.1149 56.2336 21.691 56.4536 22.2136C56.6735 22.7363 57.0421 23.1822 57.5133 23.4957C57.9844 23.8093 58.5372 23.9765 59.1025 23.9764C59.4896 23.9868 59.8747 23.9166 60.2334 23.7701C60.5922 23.6237 60.9168 23.4043 61.1868 23.1257C61.4569 22.847 61.6664 22.5153 61.8024 22.1513C61.9383 21.7874 61.9976 21.3991 61.9765 21.011Z" fill="#1E1B1B"/>
<path d="M80.6658 14.7409V26.6481C80.6658 30.8613 77.3917 32.6423 74.0683 32.6423C72.8981 32.7302 71.7265 32.493 70.6818 31.9567C69.6372 31.4204 68.7598 30.6058 68.146 29.6021L71.3444 27.7464C71.6024 28.2696 72.0135 28.7012 72.5226 28.9835C73.0317 29.2658 73.6146 29.3853 74.1932 29.326C74.5631 29.3774 74.9397 29.3447 75.2952 29.2304C75.6507 29.116 75.9761 28.9229 76.2472 28.6652C76.5183 28.4076 76.7283 28.0921 76.8615 27.7421C76.9947 27.3921 77.0478 27.0165 77.0168 26.6431V25.4967C76.5778 26.0357 76.0191 26.464 75.3854 26.7471C74.7517 27.0302 74.0606 27.1603 73.3678 27.1269C71.7191 27.0748 70.1553 26.3808 69.0075 25.1919C67.8596 24.0031 67.2178 22.4126 67.2178 20.7572C67.2178 19.1018 67.8596 17.5113 69.0075 16.3225C70.1553 15.1336 71.7191 14.4396 73.3678 14.3874C74.0606 14.3541 74.7517 14.4842 75.3854 14.7673C76.0191 15.0504 76.5778 15.4787 77.0168 16.0177V14.7383L80.6658 14.7409ZM77.0181 20.7591C77.0433 20.1528 76.8871 19.5528 76.5696 19.0363C76.2521 18.5198 75.7879 18.1105 75.2367 17.861C74.6855 17.6116 74.0725 17.5334 73.4766 17.6365C72.8808 17.7396 72.3293 18.0193 71.8931 18.4397C71.457 18.86 71.1562 19.4017 71.0294 19.995C70.9027 20.5884 70.9557 21.2063 71.1818 21.7691C71.4079 22.3319 71.7966 22.814 72.298 23.1532C72.7994 23.4924 73.3904 23.6733 73.9951 23.6726C74.3889 23.7002 74.7842 23.6447 75.1554 23.5096C75.5266 23.3746 75.8655 23.163 76.1503 22.8886C76.4351 22.6141 76.6594 22.2828 76.8089 21.9161C76.9583 21.5493 77.0296 21.1552 77.0181 20.7591Z" fill="#1E1B1B"/>
<path d="M82.7888 21.011C82.7835 19.6953 83.1675 18.4077 83.892 17.3112C84.6165 16.2147 85.649 15.3586 86.8587 14.8515C88.0684 14.3444 89.4008 14.2089 90.6873 14.4624C91.9737 14.7158 93.1562 15.3467 94.0851 16.2752C95.014 17.2037 95.6474 18.3879 95.9051 19.6779C96.1628 20.968 96.0332 22.3057 95.5327 23.5218C95.0322 24.7378 94.1834 25.7774 93.0937 26.5089C92.004 27.2405 90.7225 27.6309 89.4115 27.631C88.5413 27.6409 87.6778 27.4767 86.8716 27.1479C86.0653 26.819 85.3324 26.3322 84.7158 25.7159C84.0992 25.0995 83.6112 24.366 83.2803 23.5582C82.9494 22.7503 82.7823 21.8844 82.7888 21.011ZM92.2856 21.011C92.2699 20.4439 92.0881 19.894 91.7627 19.4301C91.4374 18.9661 90.983 18.6087 90.4563 18.4025C89.9297 18.1963 89.3542 18.1505 88.8017 18.2708C88.2493 18.3911 87.7444 18.6722 87.3503 19.0789C86.9561 19.4855 86.6901 19.9998 86.5856 20.5574C86.4811 21.1149 86.5427 21.691 86.7627 22.2136C86.9826 22.7363 87.3512 23.1822 87.8223 23.4957C88.2935 23.8093 88.8462 23.9765 89.4115 23.9764C89.7987 23.9868 90.1838 23.9166 90.5425 23.7701C90.9013 23.6237 91.2259 23.4043 91.4959 23.1257C91.766 22.847 91.9755 22.5153 92.1114 22.1513C92.2473 21.7874 92.3066 21.3991 92.2856 21.011Z" fill="#1E1B1B"/>
<path d="M97.7827 11.3804C97.7827 10.9339 97.9146 10.4975 98.1618 10.1263C98.4089 9.75506 98.7602 9.46573 99.1712 9.29488C99.5822 9.12402 100.034 9.07932 100.471 9.16642C100.907 9.25352 101.308 9.46851 101.622 9.7842C101.937 10.0999 102.151 10.5021 102.238 10.94C102.325 11.3779 102.28 11.8317 102.11 12.2442C101.94 12.6567 101.651 13.0092 101.282 13.2572C100.912 13.5053 100.477 13.6377 100.032 13.6377C99.4373 13.6317 98.8686 13.392 98.448 12.97C98.0275 12.5479 97.7886 11.9772 97.7827 11.3804ZM98.1614 14.741H101.911V27.2816H98.1563L98.1614 14.741Z" fill="#1E1B1B"/>
<path d="M118.098 21.011C118.141 21.8398 118.021 22.669 117.744 23.451C117.467 24.2329 117.038 24.9522 116.483 25.5674C115.928 26.1826 115.257 26.6816 114.51 27.0358C113.762 27.3899 112.951 27.5922 112.125 27.6309C111.431 27.669 110.736 27.5514 110.092 27.2867C109.449 27.0221 108.871 26.6169 108.403 26.1007V32.2963H104.654V14.7407H108.403V15.9187C108.872 15.4029 109.449 14.9981 110.093 14.7337C110.736 14.4692 111.431 14.3518 112.125 14.3898C112.951 14.4284 113.762 14.6306 114.51 14.9847C115.258 15.3389 115.929 15.838 116.484 16.4534C117.039 17.0688 117.468 17.7883 117.745 18.5705C118.022 19.3526 118.142 20.1821 118.098 21.011ZM114.349 21.011C114.335 20.4241 114.148 19.8546 113.812 19.3737C113.477 18.8928 113.007 18.5219 112.463 18.3075C111.918 18.0931 111.322 18.0446 110.751 18.1682C110.179 18.2917 109.656 18.5818 109.247 19.0021C108.839 19.4225 108.563 19.9544 108.454 20.5312C108.346 21.1081 108.409 21.7043 108.636 22.2453C108.864 22.7863 109.245 23.2479 109.732 23.5725C110.22 23.8971 110.792 24.0702 111.377 24.0702C111.778 24.0881 112.179 24.0206 112.553 23.8722C112.927 23.7238 113.265 23.4977 113.546 23.2089C113.827 22.92 114.043 22.5749 114.182 22.1961C114.32 21.8173 114.377 21.4135 114.349 21.011Z" fill="#1E1B1B"/>
<path d="M129.666 23.518C129.666 26.4023 127.168 27.6311 124.469 27.6311C123.379 27.7302 122.284 27.4988 121.326 26.9667C120.368 26.4347 119.592 25.6265 119.096 24.6467L122.344 22.7909C122.475 23.2438 122.757 23.6378 123.143 23.9071C123.529 24.1763 123.996 24.3046 124.464 24.2704C125.363 24.2704 125.814 23.9943 125.814 23.4939C125.814 22.1132 119.665 22.8416 119.665 18.503C119.665 15.7682 121.965 14.39 124.564 14.39C125.541 14.3589 126.508 14.5915 127.365 15.0634C128.222 15.5353 128.937 16.2292 129.436 17.0729L126.238 18.8032C126.097 18.4748 125.864 18.195 125.566 17.9988C125.269 17.8026 124.92 17.6986 124.564 17.6999C123.914 17.6999 123.514 17.9533 123.514 18.4017C123.519 19.8318 129.666 18.878 129.666 23.518Z" fill="#1E1B1B"/>
<path d="M143.36 14.7407V27.2814H139.611V26.102C139.179 26.6224 138.629 27.0324 138.009 27.2984C137.388 27.5644 136.713 27.6788 136.039 27.6322C133.515 27.6322 131.369 25.8271 131.369 22.4386V14.7407H135.118V21.8876C135.086 22.1863 135.12 22.4882 135.217 22.7724C135.314 23.0567 135.471 23.3163 135.678 23.5333C135.885 23.7503 136.136 23.9195 136.415 24.0291C136.693 24.1386 136.992 24.1859 137.291 24.1677C138.666 24.1677 139.615 23.3659 139.615 21.5849V14.7445L143.36 14.7407Z" fill="#1E1B1B"/>
<path d="M164.855 19.5813V27.2804H161.106V19.9068C161.106 18.6527 160.507 17.8509 159.308 17.8509C158.058 17.8509 157.358 18.7287 157.358 20.2083V27.2804H153.61V19.9068C153.61 18.6527 153.01 17.8509 151.81 17.8509C150.561 17.8509 149.861 18.7287 149.861 20.2083V27.2804H146.113V14.7398H149.861V15.8925C150.25 15.3811 150.76 14.9756 151.345 14.7129C151.93 14.4503 152.571 14.3389 153.21 14.3889C153.851 14.3574 154.49 14.4933 155.064 14.7832C155.637 15.0731 156.126 15.5073 156.483 16.0433C156.898 15.4825 157.448 15.0367 158.082 14.7473C158.716 14.458 159.412 14.3347 160.107 14.3889C162.976 14.3902 164.855 16.4461 164.855 19.5813Z" fill="#1E1B1B"/>
<path d="M168.026 14.6638C169.562 14.6638 170.807 13.4139 170.807 11.8719C170.807 10.33 169.562 9.08008 168.026 9.08008C166.489 9.08008 165.244 10.33 165.244 11.8719C165.244 13.4139 166.489 14.6638 168.026 14.6638Z" fill="#1E1B1B"/>
</g>
<defs>
<clipPath id="clip0_482_1427">
<rect width="171" height="38" fill="white"/>
</clipPath>
</defs>
</svg>
