<svg width="164" height="38" viewBox="0 0 164 38" fill="none" xmlns="http://www.w3.org/2000/svg">
<g clip-path="url(#clip0_482_1414)">
<path d="M39.197 9.0293H43.004V27.5079H39.197V9.0293Z" fill="#1E1B1B"/>
<path d="M45.1356 21.1774C45.1356 19.848 45.5273 18.5484 46.2611 17.4436C46.9948 16.3387 48.0376 15.4782 49.2571 14.9712C50.4767 14.4642 51.8182 14.3335 53.1115 14.5957C54.4049 14.8579 55.5919 15.5011 56.522 16.4439C57.4522 17.3866 58.0837 18.5865 58.3365 19.8913C58.5892 21.1962 58.4518 22.5473 57.9417 23.7733C57.4317 24.9994 56.5718 26.0453 55.4713 26.7783C54.3707 27.5114 53.0789 27.8987 51.7597 27.8911C50.8847 27.898 50.0171 27.7288 49.2078 27.3933C48.3986 27.0579 47.664 26.563 47.047 25.9377C46.43 25.3124 45.9432 24.5692 45.6149 23.7518C45.2867 22.9344 45.1238 22.0592 45.1356 21.1774ZM54.6783 21.1774C54.6633 20.6043 54.481 20.0483 54.1541 19.579C53.8272 19.1097 53.3703 18.748 52.8405 18.539C52.3107 18.3301 51.7315 18.2832 51.1754 18.4042C50.6192 18.5252 50.1109 18.8088 49.7138 19.2194C49.3168 19.6301 49.0487 20.1496 48.9431 20.713C48.8375 21.2764 48.899 21.8586 49.1201 22.3869C49.3411 22.9152 49.7118 23.3662 50.1858 23.6833C50.6598 24.0004 51.2161 24.1696 51.785 24.1698C52.1724 24.1774 52.5572 24.1044 52.9153 23.9554C53.2734 23.8064 53.5971 23.5845 53.8663 23.3036C54.1355 23.0228 54.3442 22.689 54.4796 22.3232C54.6149 21.9573 54.6739 21.5673 54.6529 21.1774H54.6783Z" fill="#1E1B1B"/>
<path d="M73.4466 14.8474V26.8808C73.4466 31.1264 70.1473 32.9295 66.8099 32.9295C65.6327 33.0269 64.452 32.7912 63.4005 32.249C62.349 31.7068 61.4686 30.8795 60.8584 29.8604L64.0689 27.9934C64.3291 28.522 64.7429 28.9581 65.2553 29.2437C65.7676 29.5293 66.3542 29.6507 66.9368 29.5919C67.3079 29.638 67.6846 29.6008 68.0398 29.4831C68.3951 29.3654 68.7201 29.1701 68.9917 28.9111C69.2633 28.652 69.4747 28.3357 69.6109 27.9847C69.747 27.6338 69.8045 27.2568 69.7793 26.8808V25.7171C69.3363 26.2584 68.7742 26.6882 68.1376 26.9723C67.501 27.2565 66.8074 27.3871 66.112 27.354C64.4292 27.354 62.8154 26.6804 61.6255 25.4813C60.4356 24.2822 59.7671 22.6558 59.7671 20.96C59.7671 19.2643 60.4356 17.6379 61.6255 16.4388C62.8154 15.2397 64.4292 14.5661 66.112 14.5661C66.8074 14.5329 67.501 14.6636 68.1376 14.9477C68.7742 15.2319 69.3363 15.6616 69.7793 16.2029V14.9241L73.4466 14.8474ZM69.7793 20.9217C69.8046 20.3099 69.6477 19.7044 69.3289 19.1832C69.01 18.6619 68.5437 18.2487 67.9899 17.9967C67.4361 17.7447 66.8201 17.6653 66.2212 17.7689C65.6223 17.8725 65.0679 18.1543 64.6292 18.5779C64.1905 19.0016 63.8876 19.5479 63.7594 20.1464C63.6312 20.745 63.6837 21.3685 63.91 21.9368C64.1363 22.5051 64.5261 22.9922 65.0293 23.3354C65.5325 23.6787 66.1261 23.8624 66.7338 23.8629C67.1303 23.8917 67.5283 23.8363 67.9023 23.7004C68.2763 23.5646 68.6178 23.3511 68.9048 23.0739C69.1918 22.7968 69.4179 22.462 69.5685 22.0913C69.7192 21.7205 69.791 21.3221 69.7793 20.9217Z" fill="#1E1B1B"/>
<path d="M75.591 21.1775C75.591 19.8491 75.9821 18.5506 76.7147 17.4463C77.4473 16.342 78.4885 15.4815 79.7066 14.9737C80.9247 14.4659 82.2649 14.3337 83.5575 14.5938C84.8502 14.8539 86.0373 15.4946 86.9685 16.4348C87.8997 17.375 88.5332 18.5724 88.7888 19.8756C89.0444 21.1788 88.9107 22.5291 88.4045 23.7556C87.8983 24.9822 87.0424 26.0298 85.9452 26.766C84.8479 27.5021 83.5586 27.8937 82.2404 27.8912C81.3638 27.8998 80.4943 27.7319 79.6829 27.3974C78.8714 27.0628 78.1344 26.5684 77.5151 25.9431C76.8958 25.3178 76.4066 24.5742 76.0762 23.7559C75.7458 22.9375 75.5808 22.0609 75.591 21.1775ZM85.1337 21.1775C85.1187 20.6038 84.9361 20.0474 84.6086 19.5778C84.2812 19.1083 83.8235 18.7466 83.2929 18.538C82.7624 18.3294 82.1826 18.2833 81.6261 18.4053C81.0696 18.5274 80.5613 18.8122 80.1648 19.2241C79.7683 19.6361 79.5012 20.1567 79.397 20.721C79.2928 21.2852 79.3562 21.8678 79.5792 22.3959C79.8022 22.924 80.1748 23.374 80.6505 23.6896C81.1262 24.0051 81.6837 24.1722 82.2531 24.1699C82.6405 24.1775 83.0253 24.1045 83.3834 23.9555C83.7415 23.8065 84.0652 23.5846 84.3344 23.3037C84.6036 23.0229 84.8123 22.6891 84.9477 22.3233C85.083 21.9574 85.142 21.5674 85.121 21.1775H85.1337Z" fill="#1E1B1B"/>
<path d="M90.6538 11.4589C90.6538 11.0087 90.7863 10.5686 91.0345 10.1943C91.2827 9.81992 91.6354 9.52817 92.0482 9.35589C92.4609 9.1836 92.9151 9.13853 93.3532 9.22636C93.7914 9.31419 94.1939 9.53098 94.5098 9.84932C94.8257 10.1677 95.0408 10.5732 95.1279 11.0148C95.2151 11.4563 95.1704 11.914 94.9994 12.33C94.8284 12.7459 94.5389 13.1014 94.1675 13.3515C93.796 13.6016 93.3593 13.7351 92.9126 13.7351C92.3156 13.7285 91.7449 13.4865 91.3227 13.0611C90.9005 12.6356 90.6604 12.0605 90.6538 11.4589ZM91.0218 14.8477H94.8287V27.5077H91.0218V14.8477Z" fill="#1E1B1B"/>
<path d="M111.122 21.1777C111.165 22.0196 111.042 22.8618 110.761 23.6557C110.479 24.4495 110.044 25.1795 109.482 25.8035C108.919 26.4274 108.24 26.9331 107.483 27.2915C106.725 27.6498 105.905 27.8536 105.069 27.8913C104.36 27.9389 103.65 27.8244 102.99 27.5565C102.331 27.2886 101.741 26.8741 101.262 26.344V32.5973H97.4556V14.8476H101.262V16.0369C101.741 15.5084 102.332 15.0958 102.991 14.8301C103.651 14.5643 104.361 14.4523 105.069 14.5024C105.902 14.5401 106.719 14.7428 107.473 15.0987C108.228 15.4546 108.906 15.9568 109.468 16.5767C110.03 17.1965 110.465 17.9219 110.749 18.7113C111.033 19.5008 111.16 20.3388 111.122 21.1777ZM107.316 21.1777C107.301 20.5837 107.112 20.0075 106.773 19.5211C106.435 19.0347 105.961 18.6599 105.412 18.4436C104.863 18.2273 104.263 18.1791 103.687 18.3051C103.11 18.4311 102.584 18.7257 102.173 19.1519C101.762 19.5782 101.486 20.1171 101.378 20.7012C101.27 21.2852 101.335 21.8884 101.566 22.4352C101.796 22.982 102.182 23.448 102.674 23.7748C103.167 24.1016 103.744 24.2747 104.333 24.2723C104.737 24.2896 105.14 24.2207 105.516 24.07C105.891 23.9194 106.231 23.6905 106.512 23.3982C106.794 23.106 107.011 22.7572 107.15 22.3745C107.288 21.9918 107.344 21.5839 107.316 21.1777Z" fill="#1E1B1B"/>
<path d="M122.708 23.7095C122.708 26.6251 120.17 27.8655 117.48 27.8655C116.383 27.9651 115.281 27.7307 114.317 27.1927C113.354 26.6547 112.572 25.8378 112.074 24.8476L115.348 22.9805C115.478 23.4368 115.759 23.8344 116.145 24.1068C116.531 24.3791 116.997 24.5097 117.467 24.4767C118.368 24.4767 118.825 24.1954 118.825 23.6839C118.825 22.29 112.645 23.0317 112.645 18.6454C112.645 15.8832 114.955 14.5021 117.569 14.5021C118.563 14.4573 119.55 14.6845 120.426 15.1596C121.301 15.6346 122.033 16.3399 122.543 17.2004L119.269 18.9396C119.125 18.6096 118.888 18.329 118.589 18.1316C118.289 17.9341 117.939 17.8284 117.582 17.827C116.922 17.827 116.528 18.0828 116.528 18.5303C116.528 19.9882 122.708 19.0291 122.708 23.7095Z" fill="#1E1B1B"/>
<path d="M136.502 14.8477V27.5077H132.695V26.3184C132.263 26.8449 131.713 27.2615 131.092 27.5347C130.47 27.8079 129.794 27.9301 129.117 27.8913C126.579 27.8913 124.409 26.0627 124.409 22.6483V14.8477H128.216V22.0728C128.186 22.3749 128.221 22.6799 128.32 22.9668C128.418 23.2537 128.577 23.5156 128.786 23.7345C128.995 23.9533 129.248 24.1239 129.529 24.2345C129.809 24.345 130.11 24.3928 130.411 24.3747C131.781 24.3747 132.746 23.5562 132.746 21.8171V14.8477H136.502Z" fill="#1E1B1B"/>
<path d="M158.074 19.7325V27.5076H154.267V20.065C154.267 18.7862 153.671 17.9934 152.465 17.9934C151.26 17.9934 150.498 18.8757 150.498 20.3719V27.5076H146.692V20.065C146.692 18.7862 146.095 17.9934 144.89 17.9934C143.684 17.9934 142.923 18.8757 142.923 20.3719V27.5076H139.116V14.8475H142.923V16.0112C143.317 15.4971 143.832 15.09 144.421 14.8265C145.01 14.5631 145.655 14.4517 146.298 14.5023C146.942 14.4684 147.583 14.6039 148.16 14.8953C148.736 15.1868 149.227 15.6242 149.585 16.1647C150.003 15.6 150.556 15.1514 151.193 14.8607C151.83 14.57 152.53 14.4466 153.227 14.5023C156.196 14.5023 158.074 16.5739 158.074 19.7325Z" fill="#1E1B1B"/>
<path d="M16.5201 5.7044V0.269531H-0.484131V37.6103H16.5201V32.1754C13.0368 32.1754 9.69616 30.781 7.23307 28.2988C4.76999 25.8167 3.38625 22.4502 3.38625 18.9399C3.38625 15.4296 4.76999 12.0631 7.23307 9.581C9.69616 7.09886 13.0368 5.7044 16.5201 5.7044Z" fill="#1E1B1B"/>
<path d="M16.5203 5.7041V32.1751C20.0036 32.1751 23.3442 30.7807 25.8073 28.2985C28.2704 25.8164 29.6542 22.4499 29.6542 18.9396C29.6542 15.4293 28.2704 12.0628 25.8073 9.58069C23.3442 7.09855 20.0036 5.7041 16.5203 5.7041Z" fill="#1E1B1B"/>
<path d="M161.272 14.7707C162.814 14.7707 164.064 13.5112 164.064 11.9574C164.064 10.4036 162.814 9.14404 161.272 9.14404C159.731 9.14404 158.481 10.4036 158.481 11.9574C158.481 13.5112 159.731 14.7707 161.272 14.7707Z" fill="#1E1B1B"/>
</g>
<defs>
<clipPath id="clip0_482_1414">
<rect width="164" height="38" fill="white"/>
</clipPath>
</defs>
</svg>
