<svg width="150" height="35" viewBox="0 0 150 35" fill="none" xmlns="http://www.w3.org/2000/svg">
<g clip-path="url(#clip0_482_1441)">
<path d="M43.25 10.0315H47.0569V25.3969H43.25V10.0315ZM48.567 19.5953C48.567 15.7951 50.9019 13.5277 54.5058 13.5277C58.1097 13.5277 60.4446 15.7951 60.4446 19.5953C60.4446 23.3955 58.1605 25.6756 54.5058 25.6756C50.8512 25.6756 48.567 23.4588 48.567 19.5953ZM56.625 19.5953C56.625 17.5052 55.8002 16.2765 54.5058 16.2765C53.2115 16.2765 52.3993 17.5432 52.3993 19.5953C52.3993 21.6474 53.1988 22.8888 54.5058 22.8888C55.8129 22.8888 56.625 21.7234 56.625 19.608V19.5953ZM61.8786 26.1443H65.5332C65.7071 26.53 66.0012 26.8494 66.3716 27.0548C66.742 27.2602 67.169 27.3407 67.589 27.2843C69.0356 27.2843 69.797 26.499 69.797 25.3589V23.2308H69.7208C69.4175 23.8831 68.9253 24.4296 68.3078 24.7999C67.6903 25.1702 66.9758 25.3473 66.2565 25.3083C63.4775 25.3083 61.6375 23.1928 61.6375 19.5573C61.6375 15.9218 63.3886 13.629 66.3073 13.629C67.0491 13.6 67.7821 13.798 68.4081 14.1964C69.0341 14.5949 69.5231 15.1748 69.8097 15.8584V13.743H73.6166V25.2702C73.6166 28.0444 71.1675 29.7671 67.5509 29.7671C64.1881 29.7671 62.0943 28.2597 61.8786 26.157V26.1443ZM69.8097 19.5826C69.8097 17.7332 68.9594 16.5678 67.6143 16.5678C66.2692 16.5678 65.4444 17.7205 65.4444 19.5826C65.4444 21.4447 66.2565 22.4961 67.6143 22.4961C68.9721 22.4961 69.8097 21.4701 69.8097 19.5953V19.5826ZM75.0505 19.5826C75.0505 15.7824 77.3854 13.515 80.9893 13.515C84.5932 13.515 86.9408 15.7824 86.9408 19.5826C86.9408 23.3828 84.6567 25.6629 80.9893 25.6629C77.322 25.6629 75.0505 23.4588 75.0505 19.5953V19.5826ZM83.1085 19.5826C83.1085 17.4925 82.2837 16.2638 80.9893 16.2638C79.695 16.2638 78.9463 17.5432 78.9463 19.608C78.9463 21.6727 79.7457 22.9015 81.0401 22.9015C82.3345 22.9015 83.1085 21.7234 83.1085 19.608V19.5826ZM88.3875 10.9815C88.3775 10.5979 88.4819 10.2199 88.6874 9.89546C88.8928 9.57105 89.1902 9.31486 89.5417 9.15936C89.8933 9.00386 90.2831 8.95604 90.6619 9.02198C91.0407 9.08792 91.3913 9.26464 91.6694 9.52974C91.9474 9.79484 92.1403 10.1364 92.2237 10.5111C92.3071 10.8857 92.2771 11.2767 92.1376 11.6344C91.9981 11.992 91.7554 12.3003 91.4402 12.5201C91.125 12.7399 90.7515 12.8613 90.3671 12.869C90.1122 12.8864 89.8565 12.8511 89.616 12.7652C89.3755 12.6794 89.1554 12.5448 88.9695 12.3699C88.7836 12.195 88.6359 11.9837 88.5358 11.7491C88.4356 11.5145 88.3851 11.2618 88.3875 11.0069V10.9815ZM88.3875 13.7683H92.1944V25.3969H88.3875V13.7683ZM106.014 19.5826C106.014 23.3828 104.326 25.5489 101.433 25.5489C100.691 25.5965 99.952 25.4154 99.3165 25.0303C98.6811 24.6452 98.1794 24.0745 97.8794 23.3955H97.8033V29.1211H93.9963V13.743H97.8033V15.8204H97.8794C98.1655 15.1302 98.6576 14.5447 99.2888 14.1435C99.92 13.7424 100.66 13.545 101.407 13.5783C104.326 13.629 106.064 15.8078 106.064 19.608L106.014 19.5826ZM102.207 19.5826C102.207 17.7332 101.356 16.5552 100.024 16.5552C98.6916 16.5552 97.8413 17.7459 97.8286 19.5826C97.816 21.4194 98.6916 22.5975 100.024 22.5975C101.356 22.5975 102.207 21.4447 102.207 19.608V19.5826ZM112.549 13.5023C115.709 13.5023 117.625 14.9971 117.714 17.3912H114.249C114.249 16.5678 113.564 16.0485 112.511 16.0485C111.457 16.0485 110.988 16.4538 110.988 17.0492C110.988 17.6445 111.407 17.8345 112.257 18.0119L114.693 18.5059C117.016 18.9999 118.005 19.9373 118.005 21.6981C118.005 24.1049 115.81 25.6503 112.574 25.6503C109.338 25.6503 107.219 24.1049 107.054 21.7361H110.721C110.836 22.5975 111.521 23.1041 112.638 23.1041C113.754 23.1041 114.262 22.7368 114.262 22.1288C114.262 21.5207 113.907 21.3941 112.993 21.204L110.798 20.7354C108.526 20.2667 107.333 19.0633 107.333 17.2899C107.359 15.0097 109.402 13.5277 112.549 13.5277V13.5023ZM130.708 25.3716H127.04V23.2055H126.964C126.763 23.9327 126.318 24.5693 125.704 25.0094C125.09 25.4495 124.344 25.6667 123.589 25.6249C123.01 25.6578 122.432 25.5663 121.892 25.3567C121.352 25.147 120.863 24.8242 120.459 24.4099C120.055 23.9956 119.745 23.4995 119.549 22.9552C119.353 22.4109 119.277 21.831 119.325 21.2547V13.743H123.132V20.3807C123.132 21.7614 123.843 22.4961 125.023 22.4961C125.3 22.4967 125.573 22.4382 125.825 22.3245C126.078 22.2109 126.303 22.0448 126.485 21.8372C126.668 21.6297 126.804 21.3856 126.884 21.1213C126.965 20.857 126.988 20.5785 126.952 20.3047V13.743H130.759L130.708 25.3716ZM132.548 13.743H136.228V15.9851H136.304C136.506 15.2675 136.941 14.637 137.54 14.1923C138.139 13.7476 138.869 13.5139 139.616 13.5277C140.376 13.467 141.13 13.6939 141.73 14.1633C142.329 14.6327 142.73 15.3103 142.852 16.0611H142.928C143.158 15.3023 143.635 14.6415 144.283 14.1828C144.931 13.7241 145.713 13.4936 146.507 13.5277C147.024 13.5103 147.54 13.6019 148.02 13.7964C148.5 13.9909 148.933 14.2841 149.292 14.6568C149.651 15.0296 149.928 15.4736 150.104 15.9599C150.28 16.4463 150.351 16.9641 150.313 17.4799V25.3969H146.507V18.4932C146.507 17.2265 145.936 16.6438 144.87 16.6438C144.632 16.6418 144.397 16.6907 144.179 16.7872C143.962 16.8838 143.768 17.0257 143.611 17.2033C143.453 17.381 143.336 17.5904 143.266 17.8173C143.196 18.0441 143.176 18.2833 143.207 18.5186V25.3969H139.591V18.4426C139.591 17.2772 139.02 16.6438 137.979 16.6438C137.739 16.6439 137.501 16.6949 137.282 16.7933C137.063 16.8918 136.867 17.0356 136.707 17.2151C136.548 17.3947 136.428 17.6059 136.357 17.835C136.285 18.064 136.263 18.3057 136.291 18.5439V25.3969H132.484L132.548 13.743Z" fill="#1E1B1B"/>
<path d="M32.6035 10.7281C31.9578 9.25404 31.103 7.88037 30.0656 6.64919C28.532 4.77486 26.6181 3.24599 24.45 2.1632C22.2818 1.08042 19.9085 0.468272 17.4862 0.36705C15.064 0.265828 12.6477 0.677824 10.3965 1.57593C8.14526 2.47403 6.11009 3.83788 4.42491 5.5777C2.73974 7.31752 1.44279 9.39388 0.61941 11.6701C-0.203966 13.9463 -0.535097 16.3708 -0.352185 18.784C-0.169273 21.1972 0.523534 23.5443 1.68064 25.6709C2.83774 27.7976 4.4329 29.6555 6.36113 31.1224C7.59839 32.0824 8.96552 32.8629 10.4219 33.4405C12.4637 34.2758 14.6489 34.706 16.8556 34.7072C21.4104 34.6972 25.7755 32.8848 28.9939 29.6673C32.2123 26.4499 34.0215 22.0899 34.0248 17.5431C34.0281 15.1977 33.5442 12.8772 32.6035 10.7281ZM16.8429 3.84971C18.8244 3.8495 20.7821 4.28184 22.5786 5.11644C22.1405 5.3054 21.6799 5.43738 21.2081 5.50913C19.6557 5.73346 18.2175 6.45294 17.1083 7.56018C15.9991 8.66742 15.2783 10.103 15.0536 11.6528C14.955 12.5219 14.559 13.3305 13.9325 13.942C13.306 14.5535 12.4874 14.9306 11.6147 15.0096C10.0622 15.2339 8.62405 15.9534 7.51485 17.0607C6.40564 18.1679 5.68489 19.6035 5.46016 21.1532C5.38407 21.9796 5.03085 22.7562 4.45767 23.3573C3.4687 21.2714 3.02443 18.9696 3.1662 16.6661C3.30797 14.3627 4.03117 12.1325 5.2685 10.183C6.50584 8.23361 8.2171 6.62831 10.243 5.51654C12.2689 4.40477 14.5437 3.82266 16.8556 3.82438L16.8429 3.84971ZM6.34844 26.4102C6.50072 26.2708 6.653 26.1441 6.80527 25.9921C7.93422 24.8995 8.65889 23.4572 8.86101 21.9006C8.94297 21.0256 9.33434 20.2083 9.96502 19.5952C10.5719 18.9645 11.3888 18.5771 12.2619 18.5058C13.8143 18.2814 15.2525 17.562 16.3617 16.4547C17.4709 15.3475 18.1917 13.9119 18.4164 12.3621C18.4713 11.4469 18.8647 10.5847 19.5204 9.94268C20.1423 9.32433 20.9669 8.95096 21.8426 8.8913C23.2689 8.69541 24.599 8.0625 25.6496 7.07988C26.8458 8.07055 27.8593 9.26232 28.6443 10.6014C28.5961 10.6664 28.5408 10.7259 28.4794 10.7787C27.8737 11.4149 27.0578 11.8108 26.1825 11.8934C24.6285 12.1139 23.1881 12.8321 22.0782 13.94C20.9683 15.048 20.2488 16.4858 20.028 18.0371C19.9386 18.9091 19.5499 19.7235 18.9278 20.3422C18.3056 20.9609 17.4884 21.3459 16.6145 21.4319C15.0575 21.6545 13.6139 22.3726 12.4983 23.4794C11.3827 24.5862 10.6545 26.0227 10.4219 27.5756C10.3536 28.1946 10.1406 28.7891 9.80005 29.311C8.49808 28.5393 7.33201 27.5593 6.34844 26.4102ZM16.8429 31.2997C15.5552 31.3011 14.2737 31.122 13.0359 30.7677C13.4594 29.9798 13.7346 29.1212 13.8481 28.2343C13.937 27.3641 14.3239 26.5513 14.9435 25.9328C15.563 25.3144 16.3773 24.9282 17.2489 24.8394C18.8037 24.6176 20.2447 23.8992 21.3564 22.7918C22.4682 21.6843 23.1908 20.2473 23.4162 18.6958C23.5051 17.8257 23.892 17.0128 24.5115 16.3944C25.1311 15.7759 25.9454 15.3897 26.817 15.3009C27.987 15.149 29.1022 14.7142 30.0656 14.0342C30.6005 16.0583 30.6639 18.1779 30.2508 20.2302C29.8378 22.2826 28.9592 24.2132 27.6826 25.874C26.406 27.5348 24.7653 28.8817 22.8863 29.8112C21.0073 30.7407 18.9399 31.2283 16.8429 31.2364V31.2997Z" fill="#1E1B1B"/>
</g>
<defs>
<clipPath id="clip0_482_1441">
<rect width="150" height="35" fill="white"/>
</clipPath>
</defs>
</svg>
