<svg width="149" height="35" viewBox="0 0 149 35" fill="none" xmlns="http://www.w3.org/2000/svg">
<path d="M48.0815 26.2117C47.3308 26.2521 46.5883 26.04 45.9737 25.6094C45.7169 25.4202 45.5103 25.1717 45.3717 24.8853C45.2332 24.599 45.1669 24.2834 45.1785 23.9658V12.3351C45.1724 12.2858 45.1776 12.2359 45.1938 12.1889C45.2101 12.142 45.2369 12.0994 45.2721 12.0643C45.3074 12.0292 45.3503 12.0026 45.3975 11.9865C45.4447 11.9703 45.495 11.9651 45.5446 11.9712H47.665C47.9048 11.9712 48.0184 12.0967 48.0184 12.3351V23.0625C48.0184 23.5392 48.233 23.7776 48.6748 23.7776C48.862 23.7853 49.0494 23.7641 49.2301 23.7149C49.4826 23.7149 49.6214 23.7902 49.634 24.016L49.8234 25.5843C49.8325 25.6301 49.8316 25.6772 49.8208 25.7226C49.8101 25.7679 49.7896 25.8105 49.7609 25.8473C49.7322 25.8842 49.6959 25.9145 49.6544 25.9362C49.6129 25.9579 49.5673 25.9706 49.5204 25.9733C49.056 26.1258 48.5707 26.2062 48.0815 26.2117Z" fill="#1E1B1B"/>
<path d="M60.0094 24.8691C58.9439 25.7442 57.6049 26.2229 56.2228 26.2229C54.8407 26.2229 53.5017 25.7442 52.4362 24.8691C51.4997 23.9294 50.9744 22.66 50.9744 21.3372C50.9744 20.0145 51.4997 18.7451 52.4362 17.8054C53.5038 16.9348 54.842 16.459 56.2228 16.459C57.6037 16.459 58.9418 16.9348 60.0094 17.8054C60.9243 18.7538 61.4351 20.017 61.4351 21.331C61.4351 22.645 60.9243 23.9082 60.0094 24.8566V24.8691ZM54.4305 23.213C54.925 23.6582 55.5683 23.9048 56.2354 23.9048C56.9026 23.9048 57.5459 23.6582 58.0404 23.213C58.4879 22.7015 58.7343 22.0465 58.7343 21.3686C58.7343 20.6908 58.4879 20.0357 58.0404 19.5243C57.5459 19.079 56.9026 18.8324 56.2354 18.8324C55.5683 18.8324 54.925 19.079 54.4305 19.5243C53.983 20.0357 53.7365 20.6908 53.7365 21.3686C53.7365 22.0465 53.983 22.7015 54.4305 23.213Z" fill="#1E1B1B"/>
<path d="M73.1108 16.7766C73.3507 16.7766 73.4642 16.902 73.4642 17.1404V26.1364C73.4863 26.7435 73.372 27.3479 73.1297 27.9057C72.8873 28.4635 72.523 28.9606 72.0632 29.3608C71.0426 30.2259 69.7302 30.6742 68.3903 30.6155C67.18 30.6578 65.9859 30.3293 64.9697 29.6745C64.5358 29.3913 64.1651 29.0223 63.8806 28.5907C63.5962 28.159 63.4041 27.6738 63.3162 27.1652C63.3162 26.9143 63.3162 26.8013 63.657 26.8013H65.7775C65.8675 26.8044 65.9548 26.8332 66.0287 26.8844C66.1026 26.9356 66.16 27.007 66.194 27.0899C66.3316 27.471 66.6057 27.7882 66.964 27.9807C67.4006 28.2046 67.8864 28.3168 68.3776 28.3069C68.674 28.3231 68.9706 28.2803 69.2502 28.1812C69.5297 28.0821 69.7866 27.9287 70.0059 27.7298C70.2061 27.5217 70.3619 27.2755 70.4639 27.0059C70.5658 26.7364 70.6118 26.4491 70.5991 26.1614V25.371C69.8399 25.9261 68.9158 26.2131 67.9737 26.1865C67.3144 26.2104 66.657 26.1015 66.041 25.8665C65.425 25.6315 64.8631 25.2752 64.3891 24.819C63.4791 23.8831 62.9705 22.6325 62.9705 21.331C62.9705 20.0295 63.4791 18.7788 64.3891 17.843C64.8654 17.3908 65.428 17.0379 66.0436 16.8052C66.6592 16.5725 67.3155 16.4646 67.9737 16.488C68.9431 16.4625 69.892 16.7681 70.6622 17.3537V17.153C70.6564 17.1049 70.6614 17.0561 70.677 17.0102C70.6925 16.9643 70.7181 16.9224 70.7519 16.8876C70.7858 16.8527 70.827 16.8258 70.8726 16.8088C70.9182 16.7918 70.9671 16.785 71.0156 16.7891L73.1108 16.7766ZM68.2135 23.9532C68.5387 23.9632 68.8621 23.9021 69.1609 23.7742C69.4597 23.6463 69.7266 23.4547 69.9427 23.213C70.3624 22.6743 70.5901 22.0123 70.5901 21.331C70.5901 20.6497 70.3624 19.9877 69.9427 19.449C69.7274 19.2105 69.4621 19.0218 69.1656 18.8961C68.869 18.7704 68.5484 18.7107 68.2262 18.7213C67.8972 18.711 67.57 18.7719 67.2671 18.8997C66.9642 19.0275 66.6928 19.2192 66.4717 19.4615C66.0068 19.9768 65.7624 20.6519 65.7901 21.3435C65.7674 22.0283 66.0064 22.6963 66.4591 23.213C66.6807 23.4547 66.9522 23.6459 67.255 23.7737C67.5578 23.9014 67.8847 23.9627 68.2135 23.9532Z" fill="#1E1B1B"/>
<path d="M84.357 24.8694C83.2894 25.7399 81.9513 26.2157 80.5704 26.2157C79.1896 26.2157 77.8514 25.7399 76.7838 24.8694C75.8681 23.9188 75.3569 22.6536 75.3569 21.3375C75.3569 20.0214 75.8681 18.7561 76.7838 17.8056C77.8524 16.9373 79.1902 16.4629 80.5704 16.4629C81.9506 16.4629 83.2884 16.9373 84.357 17.8056C85.2719 18.754 85.7827 20.0172 85.7827 21.3312C85.7827 22.6452 85.2719 23.9084 84.357 24.8568V24.8694ZM78.7655 23.2132C79.0075 23.442 79.2927 23.6208 79.6047 23.7393C79.9167 23.8577 80.2492 23.9135 80.583 23.9033C80.9147 23.9118 81.2449 23.8553 81.5546 23.7369C81.8643 23.6184 82.1475 23.4405 82.388 23.2132C82.8282 22.6983 83.0699 22.0446 83.0699 21.3688C83.0699 20.6931 82.8282 20.0394 82.388 19.5245C82.1475 19.2972 81.8643 19.1193 81.5546 19.0008C81.2449 18.8824 80.9147 18.8259 80.583 18.8344C80.2492 18.8242 79.9167 18.88 79.6047 18.9984C79.2927 19.1169 79.0075 19.2957 78.7655 19.5245C78.3253 20.0394 78.0836 20.6931 78.0836 21.3688C78.0836 22.0446 78.3253 22.6983 78.7655 23.2132Z" fill="#1E1B1B"/>
<path d="M90.3398 14.6436C90.0061 14.9339 89.5778 15.0939 89.1344 15.0939C88.691 15.0939 88.2626 14.9339 87.929 14.6436C87.7777 14.5017 87.6572 14.3306 87.5748 14.1407C87.4924 13.9508 87.45 13.7463 87.45 13.5395C87.45 13.3327 87.4924 13.1281 87.5748 12.9383C87.6572 12.7484 87.7777 12.5773 87.929 12.4354C88.2661 12.1523 88.6931 11.9971 89.1344 11.9971C89.5756 11.9971 90.0027 12.1523 90.3398 12.4354C90.491 12.5773 90.6116 12.7484 90.6939 12.9383C90.7763 13.1281 90.8188 13.3327 90.8188 13.5395C90.8188 13.7463 90.7763 13.9508 90.6939 14.1407C90.6116 14.3306 90.491 14.5017 90.3398 14.6436ZM90.6048 26.2116C89.8545 26.2482 89.1132 26.0364 88.497 25.6094C88.2441 25.4173 88.0411 25.168 87.9049 24.882C87.7688 24.5961 87.7035 24.2819 87.7144 23.9658V17.1404C87.7083 17.0911 87.7135 17.0412 87.7297 16.9942C87.746 16.9473 87.7727 16.9047 87.808 16.8696C87.8433 16.8345 87.8862 16.8079 87.9334 16.7918C87.9806 16.7756 88.0309 16.7704 88.0804 16.7765H90.2009C90.4407 16.7765 90.5543 16.902 90.5543 17.1404V23.0624C90.5543 23.5392 90.7689 23.7776 91.1981 23.7776C91.3895 23.7844 91.5808 23.7633 91.766 23.7148C92.0185 23.7148 92.1573 23.7901 92.1699 24.0159L92.3593 25.5843C92.3684 25.63 92.3675 25.6771 92.3567 25.7225C92.346 25.7679 92.3255 25.8104 92.2968 25.8473C92.2681 25.8841 92.2318 25.9144 92.1903 25.9362C92.1488 25.9579 92.1032 25.9705 92.0563 25.9732C91.5878 26.1266 91.0981 26.207 90.6048 26.2116Z" fill="#1E1B1B"/>
<path d="M100.16 16.4758C100.822 16.4498 101.483 16.5564 102.103 16.7891C102.723 17.0219 103.29 17.3762 103.77 17.8309C104.662 18.7831 105.159 20.0362 105.159 21.3377C105.159 22.6391 104.662 23.8923 103.77 24.8445C103.292 25.3032 102.726 25.6609 102.106 25.896C101.485 26.1311 100.823 26.2386 100.16 26.212C99.2147 26.2329 98.2885 25.9466 97.522 25.3965V29.9258C97.522 30.1642 97.3957 30.2772 97.1559 30.2772H95.0354C94.9871 30.2861 94.9372 30.2833 94.8902 30.2688C94.8432 30.2543 94.8004 30.2287 94.7656 30.1941C94.7308 30.1595 94.705 30.117 94.6904 30.0702C94.6759 30.0235 94.673 29.9739 94.682 29.9258V19.6376C94.6969 19.537 94.6879 19.4343 94.6557 19.3377C94.6235 19.2412 94.5691 19.1534 94.4967 19.0815C94.4244 19.0096 94.3361 18.9555 94.239 18.9235C94.1419 18.8915 94.0386 18.8826 93.9373 18.8973H93.5208C93.2431 18.8973 93.1043 18.797 93.1043 18.5962V17.1157C93.0977 17.0241 93.123 16.933 93.1758 16.8577C93.2286 16.7823 93.3059 16.7273 93.3946 16.7017C93.8312 16.5439 94.2933 16.4674 94.7578 16.4758C95.2209 16.4351 95.6858 16.5327 96.0928 16.7563C96.4999 16.9798 96.8305 17.319 97.0423 17.7305C97.4489 17.3217 97.935 16.9996 98.4711 16.7839C99.0071 16.5681 99.5818 16.4633 100.16 16.4758ZM98.1909 23.2134C98.416 23.4472 98.6863 23.6333 98.9857 23.7604C99.285 23.8875 99.6072 23.953 99.9327 23.953C100.258 23.953 100.58 23.8875 100.88 23.7604C101.179 23.6333 101.449 23.4472 101.675 23.2134C102.149 22.6878 102.398 21.9991 102.369 21.2938C102.402 20.5878 102.152 19.8976 101.675 19.3741C101.449 19.1403 101.179 18.9542 100.88 18.8271C100.58 18.7 100.258 18.6345 99.9327 18.6345C99.6072 18.6345 99.285 18.7 98.9857 18.8271C98.6863 18.9542 98.416 19.1403 98.1909 19.3741C97.7316 19.9068 97.4926 20.5928 97.522 21.2938C97.4963 21.9942 97.7349 22.6788 98.1909 23.2134Z" fill="#1E1B1B"/>
<path d="M111.115 26.2118C109.982 26.2581 108.859 25.9887 107.872 25.4339C107.476 25.1968 107.138 24.874 106.885 24.4895C106.631 24.1051 106.468 23.6689 106.407 23.2132C106.407 22.9622 106.496 22.8368 106.774 22.8368H108.629C108.717 22.8402 108.803 22.8678 108.876 22.9165C108.95 22.9652 109.008 23.0331 109.045 23.1128C109.311 23.7903 110.005 24.1291 111.115 24.1291C111.503 24.1467 111.889 24.0691 112.239 23.9032C112.36 23.849 112.463 23.7632 112.539 23.6549C112.615 23.5466 112.659 23.42 112.668 23.2885C112.668 22.9622 112.466 22.7364 112.062 22.5858C111.583 22.4273 111.088 22.3221 110.585 22.2722C109.99 22.2052 109.4 22.1004 108.818 21.9585C108.253 21.8312 107.738 21.5384 107.341 21.1179C107.108 20.832 106.936 20.5015 106.836 20.1467C106.737 19.792 106.711 19.4207 106.762 19.0559C106.813 18.6911 106.939 18.3406 107.132 18.0262C107.325 17.7118 107.581 17.4403 107.884 17.2284C108.794 16.6523 109.861 16.3717 110.939 16.4254C111.982 16.3904 113.014 16.6468 113.918 17.1657C114.282 17.3707 114.595 17.654 114.836 17.9947C115.076 18.3355 115.236 18.7252 115.306 19.1355C115.306 19.3864 115.192 19.5119 114.965 19.5119H113.097C113.018 19.5165 112.94 19.4975 112.873 19.4572C112.805 19.4169 112.751 19.3572 112.718 19.2861C112.594 18.9889 112.359 18.7508 112.062 18.6211C111.728 18.4471 111.354 18.3608 110.977 18.3702C110.607 18.3502 110.238 18.4235 109.904 18.5835C109.786 18.6286 109.685 18.7076 109.613 18.8105C109.541 18.9134 109.501 19.0353 109.5 19.1606C109.508 19.3322 109.571 19.4967 109.68 19.6299C109.789 19.7631 109.938 19.8581 110.106 19.9009C110.59 20.0824 111.094 20.2087 111.608 20.2773C112.198 20.3545 112.784 20.4634 113.362 20.6035C113.928 20.7307 114.442 21.0235 114.839 21.4441C115.051 21.6758 115.215 21.947 115.321 22.242C115.427 22.537 115.474 22.8501 115.457 23.163C115.468 23.5967 115.366 24.0258 115.16 24.4084C114.954 24.7911 114.652 25.1141 114.284 25.3461C113.34 25.9479 112.235 26.2499 111.115 26.2118Z" fill="#1E1B1B"/>
<path d="M128.799 25.5846C128.806 25.6292 128.804 25.6747 128.793 25.7185C128.783 25.7623 128.763 25.8035 128.736 25.8398C128.709 25.876 128.675 25.9065 128.636 25.9295C128.597 25.9524 128.554 25.9674 128.509 25.9735C128.048 26.1231 127.567 26.2035 127.082 26.2119C126.603 26.2613 126.118 26.1868 125.676 25.9956C125.234 25.8043 124.849 25.5029 124.558 25.1204C123.666 25.8823 122.514 26.2733 121.339 26.2119C120.794 26.2369 120.25 26.1482 119.741 25.9516C119.232 25.755 118.771 25.4547 118.386 25.0702C118.004 24.6673 117.707 24.1918 117.514 23.6722C117.321 23.1526 117.235 22.5997 117.262 22.0464V17.1407C117.262 16.9023 117.376 16.7769 117.616 16.7769H119.736C119.976 16.7769 120.09 16.9023 120.09 17.1407V21.67C120.067 22.2343 120.261 22.7862 120.633 23.2133C120.818 23.4089 121.044 23.5628 121.294 23.6645C121.544 23.7663 121.814 23.8135 122.084 23.803C122.361 23.815 122.637 23.7724 122.897 23.6777C123.157 23.5829 123.395 23.4379 123.599 23.2509C123.791 23.0539 123.941 22.8197 124.038 22.5629C124.136 22.3061 124.18 22.0321 124.167 21.7579V17.1407C124.167 16.9023 124.28 16.7769 124.52 16.7769H126.666C126.906 16.7769 127.019 16.9023 127.019 17.1407V23.0502C127.019 23.5395 127.234 23.7779 127.65 23.7779C127.846 23.7854 128.041 23.7643 128.231 23.7152C128.279 23.7019 128.329 23.6995 128.377 23.7082C128.426 23.7169 128.472 23.7365 128.513 23.7654C128.553 23.7944 128.586 23.832 128.609 23.8755C128.632 23.9189 128.645 23.967 128.647 24.0163L128.799 25.5846Z" fill="#1E1B1B"/>
<path d="M148.855 25.5842C148.866 25.6292 148.867 25.676 148.858 25.7214C148.849 25.7668 148.83 25.8096 148.802 25.8468C148.774 25.884 148.739 25.9146 148.698 25.9365C148.657 25.9583 148.611 25.9708 148.565 25.9732C148.096 26.1248 147.606 26.2052 147.113 26.2116C146.363 26.2501 145.621 26.0381 145.005 25.6093C144.739 25.4257 144.523 25.1796 144.375 24.8929C144.228 24.6062 144.154 24.2877 144.16 23.9657V21.0173C144.186 20.4546 143.997 19.903 143.629 19.474C143.452 19.2779 143.234 19.1233 142.989 19.0213C142.745 18.9194 142.481 18.8726 142.216 18.8843C141.977 18.8754 141.739 18.9204 141.521 19.016C141.302 19.1117 141.108 19.2554 140.954 19.4364C140.62 19.8568 140.45 20.3822 140.474 20.9169V25.5466C140.474 25.785 140.36 25.9104 140.121 25.9104H137.987C137.938 25.9166 137.888 25.9113 137.84 25.8952C137.793 25.8791 137.75 25.8525 137.715 25.8174C137.68 25.7823 137.653 25.7397 137.637 25.6927C137.62 25.6458 137.615 25.5958 137.621 25.5466V21.0173C137.649 20.4608 137.474 19.913 137.129 19.474C136.975 19.2896 136.782 19.1412 136.564 19.0392C136.346 18.9373 136.108 18.8844 135.867 18.8843C135.609 18.874 135.353 18.9178 135.113 19.013C134.874 19.1081 134.658 19.2524 134.479 19.4364C134.118 19.8434 133.932 20.375 133.961 20.9169V25.5466C133.967 25.5958 133.962 25.6458 133.946 25.6927C133.929 25.7397 133.903 25.7823 133.867 25.8174C133.832 25.8525 133.789 25.8791 133.742 25.8952C133.695 25.9113 133.645 25.9166 133.595 25.9104H131.538C131.298 25.9104 131.184 25.785 131.184 25.5466V19.6371C131.199 19.5365 131.19 19.4338 131.158 19.3373C131.126 19.2407 131.071 19.153 130.999 19.081C130.927 19.0091 130.838 18.955 130.741 18.923C130.644 18.8911 130.541 18.8821 130.44 18.8969H130.023C129.745 18.8969 129.606 18.7965 129.606 18.5958V17.1152C129.6 17.0236 129.625 16.9326 129.678 16.8572C129.731 16.7819 129.808 16.7268 129.897 16.7012C130.333 16.5434 130.795 16.4669 131.26 16.4754C131.706 16.4376 132.153 16.526 132.551 16.7302C132.948 16.9344 133.28 17.2463 133.507 17.6297C133.932 17.2285 134.437 16.9189 134.989 16.7203C135.54 16.5217 136.127 16.4383 136.713 16.4754C137.281 16.4478 137.849 16.5538 138.368 16.7849C138.888 17.016 139.346 17.3655 139.704 17.8053C140.122 17.354 140.635 17.0006 141.207 16.7706C141.779 16.5406 142.395 16.4398 143.011 16.4754C143.562 16.4497 144.112 16.538 144.627 16.7345C145.142 16.931 145.61 17.2316 146.002 17.6171C146.386 18.0192 146.683 18.4946 146.876 19.0144C147.069 19.5341 147.154 20.0875 147.126 20.6409V23.0624C147.126 23.5391 147.34 23.7775 147.744 23.7775C147.94 23.7866 148.136 23.7654 148.325 23.7148C148.586 23.7148 148.724 23.8152 148.741 24.0159L148.855 25.5842Z" fill="#1E1B1B"/>
<path d="M0.850749 15.1456C1.78195 11.4251 3.9386 8.12121 6.9773 5.76006C10.016 3.3989 13.762 2.11621 17.6189 2.11621C21.4758 2.11621 25.2219 3.3989 28.2606 5.76006C31.2993 8.12121 33.4559 11.4251 34.3871 15.1456H32.8725C30.3174 15.1082 27.8147 15.8672 25.7159 17.3161C25.5948 17.4033 25.4683 17.4829 25.3372 17.5545H25.1605C25.0295 17.4829 24.903 17.4033 24.7819 17.3161C22.6644 15.9008 20.1706 15.1448 17.6189 15.1448C15.0673 15.1448 12.5735 15.9008 10.456 17.3161C10.3349 17.4033 10.2084 17.4829 10.0774 17.5545H9.90065C9.76959 17.4829 9.64312 17.4033 9.52199 17.3161C7.42314 15.8672 4.92045 15.1082 2.36538 15.1456H0.850749ZM30.1462 23.0123C30.9237 22.4104 31.8873 22.0955 32.8725 22.1215H34.9046V18.094H32.8725C31.1373 18.0732 29.4417 18.6101 28.0383 19.6247C27.2486 20.2035 26.2932 20.5157 25.312 20.5157C24.3308 20.5157 23.3754 20.2035 22.5857 19.6247C21.1467 18.629 19.4354 18.0952 17.682 18.0952C15.9287 18.0952 14.2174 18.629 12.7784 19.6247C11.9887 20.2035 11.0333 20.5157 10.0521 20.5157C9.07094 20.5157 8.11553 20.2035 7.32578 19.6247C5.90506 18.5971 4.1852 18.0595 2.42849 18.094H0.333252V22.1215H2.36538C3.35053 22.0955 4.31418 22.4104 5.09171 23.0123C6.52809 24.0087 8.23746 24.543 9.989 24.543C11.7406 24.543 13.4499 24.0087 14.8863 23.0123C15.6648 22.4123 16.6278 22.0976 17.6126 22.1215C18.5981 22.0934 19.5624 22.4085 20.339 23.0123C21.778 24.0081 23.4892 24.5418 25.2426 24.5418C26.9959 24.5418 28.7072 24.0081 30.1462 23.0123ZM30.1462 30.2141C30.9237 29.6122 31.8873 29.2973 32.8725 29.3233H34.9046V25.2958H32.8725C31.1373 25.2749 29.4417 25.8118 28.0383 26.8265C27.2486 27.4053 26.2932 27.7175 25.312 27.7175C24.3308 27.7175 23.3754 27.4053 22.5857 26.8265C21.1467 25.8308 19.4354 25.297 17.682 25.297C15.9287 25.297 14.2174 25.8308 12.7784 26.8265C11.9887 27.4053 11.0333 27.7175 10.0521 27.7175C9.07094 27.7175 8.11553 27.4053 7.32578 26.8265C5.90506 25.7989 4.1852 25.2613 2.42849 25.2958H0.333252V29.3233H2.36538C3.35053 29.2973 4.31418 29.6122 5.09171 30.2141C6.52809 31.2105 8.23746 31.7448 9.989 31.7448C11.7406 31.7448 13.4499 31.2105 14.8863 30.2141C15.6648 29.614 16.6278 29.2994 17.6126 29.3233C18.5981 29.2952 19.5624 29.6103 20.339 30.2141C21.778 31.2099 23.4892 31.7436 25.2426 31.7436C26.9959 31.7436 28.7072 31.2099 30.1462 30.2141Z" fill="#1E1B1B"/>
</svg>
