<svg width="161" height="38" viewBox="0 0 161 38" fill="none" xmlns="http://www.w3.org/2000/svg">
<g clip-path="url(#clip0_482_1444)">
<path d="M45.4561 12.2719H49.5295V28.7394H45.4561V12.2719ZM51.1538 22.5451C51.1538 18.4662 53.6917 16.0214 57.4986 16.0214C61.3056 16.0214 63.8435 18.4662 63.8435 22.5451C63.8435 26.624 61.3944 29.0941 57.4986 29.0941C53.6029 29.0941 51.1538 26.7126 51.1538 22.5451ZM59.8082 22.5451C59.8082 20.303 58.9326 18.9856 57.5367 18.9856C56.1408 18.9856 55.2779 20.2523 55.2779 22.5451C55.2779 24.8379 56.1408 26.0919 57.5367 26.0919C58.9326 26.0919 59.8335 24.8379 59.8335 22.5578L59.8082 22.5451ZM65.4678 29.5881H69.4016C69.5807 30.0109 69.8935 30.3635 70.2922 30.5923C70.6908 30.821 71.1536 30.9132 71.6097 30.8548C73.1705 30.8548 73.9826 30.0188 73.9826 28.7774V26.4973H73.9953C73.6592 27.2073 73.1156 27.799 72.4361 28.1947C71.7566 28.5904 70.973 28.7715 70.1884 28.7141C67.2063 28.7141 65.2267 26.4466 65.2267 22.5451C65.2267 18.6436 67.1175 16.2114 70.3026 16.2114C71.1073 16.1685 71.9055 16.3756 72.5873 16.8044C73.2691 17.2332 73.8009 17.8625 74.1095 18.6056H73.9953V16.3128H78.0307V28.6507C78.0307 31.6275 75.3912 33.4896 71.5081 33.4896C67.9804 33.477 65.7216 31.8682 65.4932 29.6008L65.4678 29.5881ZM73.9953 22.5451C73.9953 20.5563 73.0817 19.3023 71.635 19.3023C70.1884 19.3023 69.3001 20.569 69.3001 22.5451C69.3001 24.5212 70.1757 25.6866 71.635 25.6866C73.0944 25.6866 73.9953 24.6099 73.9953 22.5451ZM79.6423 22.5451C79.6423 18.4662 82.1802 16.0214 85.9871 16.0214C89.7941 16.0214 92.332 18.4662 92.332 22.5451C92.332 26.624 89.8702 29.0941 85.9871 29.0941C82.1041 29.0941 79.6676 26.7126 79.6676 22.5451H79.6423ZM88.2967 22.5451C88.2967 20.303 87.4084 18.9856 86.0252 18.9856C84.642 18.9856 83.7664 20.2523 83.7664 22.5451C83.7664 24.8379 84.6293 26.0919 86.0252 26.0919C87.4211 26.0919 88.3221 24.8379 88.3221 22.5578L88.2967 22.5451ZM93.9817 13.3106C93.964 12.8964 94.0708 12.4864 94.2884 12.1333C94.5061 11.7802 94.8246 11.5002 95.2029 11.3293C95.5813 11.1584 96.0022 11.1044 96.4116 11.1742C96.821 11.2441 97.2001 11.4346 97.5001 11.7213C97.8001 12.008 98.0073 12.3777 98.095 12.783C98.1828 13.1882 98.1471 13.6103 97.9925 13.9951C97.838 14.3799 97.5716 14.7097 97.2277 14.9422C96.8838 15.1746 96.4781 15.299 96.0628 15.2994C95.7974 15.3061 95.5333 15.2602 95.2858 15.1642C95.0383 15.0682 94.8124 14.9241 94.6212 14.7403C94.4299 14.5565 94.2771 14.3365 94.1717 14.0933C94.0663 13.85 94.0103 13.5883 94.0071 13.3233L93.9817 13.3106ZM93.9817 16.3001H98.1059V28.7901H94.0451L93.9817 16.3001ZM112.94 22.5451C112.94 26.6113 111.113 28.9674 108.004 28.9674C107.208 29.0164 106.416 28.8204 105.735 28.4059C105.054 27.9913 104.518 27.3782 104.197 26.6493H104.121V32.8056H100.047V16.3381H104.095V18.5676H104.172C104.481 17.8243 105.013 17.1945 105.694 16.7638C106.375 16.3331 107.173 16.1225 107.978 16.1608C111.176 16.1354 113.016 18.4789 113.016 22.5578L112.94 22.5451ZM108.791 22.5451C108.791 20.569 107.864 19.2896 106.43 19.2896C104.996 19.2896 104.095 20.5563 104.083 22.5451C104.07 24.5339 104.996 25.7879 106.43 25.7879C107.864 25.7879 108.867 24.6099 108.867 22.5578L108.791 22.5451ZM119.894 16.0088C123.308 16.0088 125.427 17.6175 125.452 20.2016H121.734C121.734 19.3023 120.986 18.7449 119.869 18.7449C118.752 18.7449 118.219 19.1756 118.219 19.8216C118.219 20.4677 118.689 20.6703 119.628 20.8603L122.242 21.3924C124.78 21.9244 125.795 22.9378 125.795 24.8252C125.795 27.3587 123.447 29.0814 119.958 29.0814C116.468 29.0814 114.196 27.4093 114.032 24.8632H117.978C118.092 25.7879 118.828 26.3326 120.021 26.3326C121.214 26.3326 121.772 25.9526 121.772 25.2812C121.772 24.6099 121.392 24.4959 120.414 24.2932L118.054 23.7992C115.605 23.2798 114.323 22.0004 114.323 20.0876C114.4 17.6049 116.531 16.0214 119.97 16.0214L119.894 16.0088ZM139.436 28.7774H135.49V26.434H135.414C135.193 27.2156 134.712 27.8988 134.05 28.3708C133.388 28.8429 132.584 29.0757 131.772 29.0308C131.158 29.0507 130.548 28.9409 129.98 28.7087C129.412 28.4764 128.9 28.1269 128.477 27.6832C128.054 27.2394 127.73 26.7113 127.526 26.1336C127.321 25.5559 127.242 24.9417 127.292 24.3312V16.3128H131.366V23.4571C131.366 24.9265 132.14 25.7246 133.409 25.7246C133.707 25.7224 134 25.6564 134.27 25.5311C134.54 25.4059 134.78 25.2242 134.974 24.9985C135.167 24.7728 135.31 24.5082 135.393 24.2226C135.475 23.937 135.495 23.6371 135.452 23.3431V16.3128H139.513L139.436 28.7774ZM141.403 16.3001H145.363V18.7069H145.451C145.67 17.9359 146.139 17.2591 146.784 16.7823C147.429 16.3055 148.215 16.0558 149.017 16.0721C149.823 16.0022 150.626 16.2348 151.269 16.7244C151.912 17.214 152.349 17.9254 152.494 18.7196H152.672C152.925 17.9212 153.436 17.2288 154.125 16.75C154.813 16.2713 155.641 16.0329 156.479 16.0721C157.036 16.0509 157.591 16.1474 158.108 16.3553C158.625 16.5631 159.093 16.8777 159.479 17.2782C159.866 17.6788 160.164 18.1565 160.353 18.6799C160.543 19.2033 160.619 19.7607 160.578 20.3157V28.7901H156.479V21.3544C156.479 20.0876 155.882 19.3783 154.728 19.3783C154.471 19.3741 154.217 19.4252 153.983 19.5282C153.749 19.6311 153.539 19.7835 153.369 19.9748C153.199 20.1661 153.073 20.3919 152.998 20.6365C152.924 20.8812 152.904 21.139 152.938 21.3924V28.7901H149.055V21.3164C149.055 20.0496 148.433 19.3783 147.317 19.3783C147.058 19.3762 146.802 19.4294 146.565 19.5344C146.329 19.6393 146.117 19.7936 145.946 19.9867C145.774 20.1799 145.645 20.4075 145.569 20.6543C145.492 20.9011 145.47 21.1614 145.502 21.4177V28.7901H141.429L141.403 16.3001Z" fill="#1E1B1B"/>
<path d="M37.3981 13.3489C37.3982 10.8277 36.6355 8.36528 35.2099 6.28412C33.7843 4.20296 31.7623 2.60011 29.4087 1.68552C27.0551 0.770937 24.4796 0.587259 22.0197 1.15854C19.5597 1.72983 17.33 3.02944 15.6225 4.88715H-0.214355V38.2528H33.2231V22.6594C34.5356 21.4876 35.5857 20.0528 36.3051 18.4485C37.0245 16.8442 37.3969 15.1066 37.3981 13.3489V13.3489ZM30.9644 13.3489C30.9669 14.557 30.6103 15.7387 29.9397 16.7445C29.2692 17.7502 28.3148 18.5347 27.1974 18.9988C26.08 19.4629 24.8498 19.5856 23.6624 19.3514C22.4751 19.1173 21.3841 18.5368 20.5274 17.6834C19.6708 16.83 19.087 15.7421 18.8499 14.5574C18.6129 13.3727 18.7333 12.1444 19.1958 11.028C19.6584 9.91158 20.4423 8.95726 21.4485 8.28581C22.4546 7.61435 23.6376 7.25594 24.8479 7.25594C26.4679 7.25593 28.0217 7.89746 29.1684 9.03975C30.3151 10.182 30.961 11.7318 30.9644 13.3489V13.3489ZM26.7894 31.8305H6.21935V11.3095H12.4881C12.367 11.9827 12.3033 12.6649 12.2977 13.3489C12.3011 16.6705 13.6244 19.8551 15.9773 22.2038C18.3302 24.5525 21.5204 25.8735 24.8479 25.8769C25.4984 25.8734 26.1477 25.8184 26.7894 25.7122V31.8305Z" fill="#1E1B1B"/>
</g>
<defs>
<clipPath id="clip0_482_1444">
<rect width="161" height="38" fill="white"/>
</clipPath>
</defs>
</svg>
